<svg id="Layer_1" data-name="Layer 1" xmlns="http://www.w3.org/2000/svg" viewBox="0 0 300 300"><defs><style>.cls-1{fill:#fff;}</style></defs><path class="cls-1" d="M65,174.27V146.49h3c11.91,0,23.83,0,35.74-.05a5.64,5.64,0,0,0,3.55-1.43c3.19-3.1,6.18-6.41,9.47-9.88-3.3-3.38-6.84-7-10.46-10.64a3.08,3.08,0,0,0-1.94-.39q-23.65,0-47.32,0c-.75,0-1.5.12-2.49.2v99.79H24.43V96.53c.9,0,1.81-.15,2.71-.15q47.19,0,94.38,0a5.62,5.62,0,0,1,3.53,1.47q9.54,9.35,18.85,19a4.91,4.91,0,0,1,1.21,3.1c.09,9.94.1,19.88,0,29.83a5.89,5.89,0,0,1-1.59,3.71q-9.57,9.69-19.44,19.1a7.1,7.1,0,0,1-4,1.61c-2.52.26-5.09.08-8.34.08,2.65,3.29,4.9,6.13,7.19,8.94,8.35,10.22,16.73,20.41,25,30.68a6.12,6.12,0,0,1,1.16,3.2c.18,2.27,0,4.57,0,7-1.09.07-1.83.15-2.58.15-8.49,0-17,0-25.46,0a3.85,3.85,0,0,1-3.42-1.64Q94.94,199.15,76,175.78a4.62,4.62,0,0,0-3-1.44C70.41,174.13,67.77,174.27,65,174.27Z"/><path class="cls-1" d="M245.16,96.45h30.41V224.08H245.16Z"/><path class="cls-1" d="M234.58,174.26h-3.94c-10,0-20.06,0-30.09.08a6.28,6.28,0,0,0-3.79,1.51,98.75,98.75,0,0,0-8,8,6.27,6.27,0,0,0-1.52,3.76c-.12,11.14-.07,22.29-.09,33.43,0,1-.09,2-.15,3.1H156.61c-.06-.86-.15-1.6-.15-2.34,0-17.4,0-34.8-.05-52.2a5.32,5.32,0,0,1,1.82-4.23c6.17-6,12.21-12,18.36-18a4.58,4.58,0,0,1,2.81-1.32c18-.09,36-.08,54-.09.33,0,.66.08,1.18.14Z"/><path class="cls-1" d="M226.21,135.26H183.12V130c0-5,0-10,0-14.95a2.79,2.79,0,0,1,.86-2.38,3.62,3.62,0,0,1,1.84-.9c2.7-.12,5.42-.11,8.13-.12h22.34c2.16,0,4.33,0,6.49,0,2.34,0,3.45,1.2,3.46,3.52q0,9.74,0,19.48C226.24,134.86,226.22,135,226.21,135.26Zm-21.55-3.07a4.08,4.08,0,1,0-4.08-4.1A4,4,0,0,0,204.66,132.19Zm-8.9-14.47,3.32-3.26-1.39-1.33L193.78,117a1,1,0,0,0-.11,1.53c1.34,1.4,2.71,2.76,4.08,4.14l1.54-1.51Zm15.8,4.93c1.39-1.38,2.76-2.71,4.1-4.07a1,1,0,0,0,0-1.47c-1.34-1.35-2.71-2.68-4.05-4L210,114.62l3.55,3.29-3.46,3.35Zm-4.65-9.48-6.12,8.17,1.64,1.22,6.13-8.2c-.45-.35-.82-.64-1.19-.91A3.45,3.45,0,0,0,206.91,113.17Z"/><path class="cls-1" d="M191.6,91.44a39.12,39.12,0,0,1-1.71-3.52,3.46,3.46,0,0,1,0-2c.82-2.86-.27-5.19-3.29-6.35,1.5-.64,2.8-1.28,4.15-1.79a33.67,33.67,0,0,1,12.77-2c2.47.06,4.93.07,7.4,0a8.54,8.54,0,0,1,8.11,11,24,24,0,0,1-1,2.75c-.46-3.19-2.55-5.5-4.17-8-.42-.66-1-.7-1.61-.21-1,.72-1.87,1.51-2.85,2.21a8.35,8.35,0,0,1-4.9,1.58,10.31,10.31,0,0,0-5.72,1.73Z"/><path class="cls-1" d="M193.38,96.32h2.1v3.09a2.94,2.94,0,0,0,3,3c.6,0,1.2,0,1.8,0a3.07,3.07,0,0,0,3.37-3.2c0-.27,0-.54,0-.86h1.92c.05.55.07,1.09.17,1.62a3,3,0,0,0,2.95,2.45H211a3,3,0,0,0,2.91-2.92c0-1,0-2.07,0-3.13h2.06a26.2,26.2,0,0,1-3.62,13,.86.86,0,0,1-.65.33q-7,0-14,0a1,1,0,0,1-.74-.44,25.6,25.6,0,0,1-3.48-11.39c0-.24-.05-.49-.07-.73S193.4,96.63,193.38,96.32Z"/><path class="cls-1" d="M193.44,94.19a1.64,1.64,0,0,1,.92-2.15c1.62-1,3.21-2.07,4.75-3.18A9.63,9.63,0,0,1,204.76,87a10.6,10.6,0,0,0,6.83-2.74c.33-.28.69-.53,1-.77a12.5,12.5,0,0,1,3.33,10.72h-8.65c-1.21,0-1.54.34-1.58,1.56,0,.16,0,.32,0,.51h-1.87c0-.06-.09-.11-.09-.15-.1-1.8-.25-1.93-2.05-1.92Z"/><path class="cls-1" d="M181,121.21v14H175c-.1-3.57-.39-7.13,1.81-10.28A11,11,0,0,1,181,121.21Z"/><path class="cls-1" d="M228.38,121.18a10.78,10.78,0,0,1,5.85,7.91,51.86,51.86,0,0,1,.31,6.16h-6.16Z"/><path class="cls-1" d="M207.79,96.32h4.1c0,1.05,0,2.06,0,3.05a1,1,0,0,1-1.07,1h-.17c-3.1,0-2.87,0-2.85-2.67C207.79,97.28,207.79,96.83,207.79,96.32Z"/><path class="cls-1" d="M197.46,96.33h4.1c0,1.11,0,2.16,0,3.22,0,.59-.51.81-1,.84a13.12,13.12,0,0,1-1.88,0,1.12,1.12,0,0,1-1.17-1.21C197.45,98.28,197.46,97.35,197.46,96.33Z"/><path class="cls-1" d="M217.64,100.82l.43-4.47a1.72,1.72,0,0,1,1.33,3.07C218.88,99.89,218.3,100.3,217.64,100.82Z"/><path class="cls-1" d="M191.29,96.37l.42,4.42c-.65-.52-1.27-1-1.82-1.44a1.69,1.69,0,0,1,1.4-3Z"/><path class="cls-1" d="M206.71,128.13a2,2,0,1,1-4.08,0,2,2,0,1,1,4.08,0Z"/></svg>